# xmcd
#
# Track frame offsets: 
#        150
#        16971
#        31424
#        47826
#        61851
#        77885
#        93726
#        111718
#        125983
#        143671
#        159472
#        175625
#        193949
#        208853
#        225604
#        241353
#        256791
#        272219
#        287232
#        303835
#
# Disc length: 4259 seconds
#
# Revision: 3
# Processed by: cddbd v1.5.2PL0 Copyright (c) Steve Scherf et al.
# Submitted via: ExactAudioCopy v1.0b3
#
DISCID=2810a114
DTITLE=Various Artist - MDR Schlager Charts - Vol.03 - CD2
DYEAR=2004
DGENRE=Schlager
TTITLE0=G.G. Anderson - Stern an der Playa del Sol (Single Version)
TTITLE1=Fancy - Hör den Bolero (Bolero) (Radio Edit)
TTITLE2=Fernando Express - Die zehn Gebote der Liebe
TTITLE3=Andreas Zaron - Sonne über Deutschland
TTITLE4=Karel Gott - Jede Nacht
TTITLE5=Uta Bresnan - Aus Liebe geboren
TTITLE6=Andreas Martin - Alle blonden Mädchen
TTITLE7=Looping - Passiert ist passiert
TTITLE8=Jenney - Wie du (Radio Version)
TTITLE9=Nino de Angelo - Jenseits von Eden
TTITLE10=Gerd Christian - Ich werde da sein (Radio Mix)
TTITLE11=Ute Freudenberg - Was du nicht sagst
TTITLE12=Leonard - Manchmal braucht die Wahrheit Zeit
TTITLE13=Frank Schöbel - Leben so wie ich es mag
TTITLE14=Ralf Bursy - Keine Lügen mehr (Radio Mix)
TTITLE15=Paldauer - Ab heute wird gelebt
TTITLE16=Bianca Graf - Die schönsten Rosen (Radio Mix)
TTITLE17=Ekki Göpelt - Ein ganz besond'rer Tag
TTITLE18=Ulli Schwinge - Wünsch mir nur einfach viel Glück
TTITLE19=Michael Heck - Königin der Insel
EXTD=YEAR: 2004
EXTT0=
EXTT1=
EXTT2=
EXTT3=
EXTT4=
EXTT5=
EXTT6=
EXTT7=
EXTT8=
EXTT9=
EXTT10=
EXTT11=
EXTT12=
EXTT13=
EXTT14=
EXTT15=
EXTT16=
EXTT17=
EXTT18=
EXTT19=
PLAYORDER=
